<svg width="400" height="300" viewBox="0 0 400 300" fill="none" xmlns="http://www.w3.org/2000/svg">
  <defs>
    <linearGradient id="gradient1" x1="0%" y1="0%" x2="100%" y2="100%">
      <stop offset="0%" stop-color="#FF9F5A" />
      <stop offset="100%" stop-color="#FFCC66" />
    </linearGradient>
    <linearGradient id="gradient2" x1="0%" y1="0%" x2="100%" y2="0%">
      <stop offset="0%" stop-color="#FF9F5A" />
      <stop offset="100%" stop-color="#FF7A28" />
    </linearGradient>
    <linearGradient id="gradient3" x1="0%" y1="0%" x2="0%" y2="100%">
      <stop offset="0%" stop-color="#FFCC66" />
      <stop offset="100%" stop-color="#FFAA33" />
    </linearGradient>
  </defs>
  
  <!-- Main Block -->
  <polygon points="200,200 320,140 200,80 80,140" fill="url(#gradient1)" />
  <polygon points="200,200 320,140 320,200 200,260" fill="url(#gradient2)" />
  <polygon points="200,200 80,140 80,200 200,260" fill="url(#gradient3)" />
  
  <!-- Document Icon -->
  <rect x="170" y="110" width="60" height="80" rx="4" fill="white" fill-opacity="0.9" />
  <line x1="180" y1="130" x2="220" y2="130" stroke="#FF9F5A" stroke-width="2" />
  <line x1="180" y1="145" x2="220" y2="145" stroke="#FF9F5A" stroke-width="2" />
  <line x1="180" y1="160" x2="210" y2="160" stroke="#FF9F5A" stroke-width="2" />
  
  <!-- Signature Line -->
  <line x1="180" y1="175" x2="220" y2="175" stroke="#FFAA33" stroke-width="2" />
  <path d="M190 175 Q195 165, 200 175 Q205 185, 210 175" stroke="#FF9F5A" stroke-width="1.5" fill="none" />
  
  <!-- Small Decorative Elements -->
  <circle cx="120" cy="120" r="15" fill="#FFCC66" />
  <circle cx="280" cy="120" r="15" fill="#FF9F5A" />
  <circle cx="120" cy="180" r="10" fill="#FF9F5A" />
  <circle cx="280" cy="180" r="10" fill="#FFCC66" />
  
  <!-- Text Label -->
  <text x="200" y="230" font-family="Arial" font-size="14" fill="white" text-anchor="middle">Secure Contracts</text>
</svg> 