<svg width="10261" height="5407" viewBox="0 0 10261 5407" fill="none" xmlns="http://www.w3.org/2000/svg">
<g clip-path="url(#clip0_110_80)">
<path d="M0 508C0 227.439 227.439 0 508 0H5130.5H7695.75H8676C8896.91 0 9076 179.086 9076 400V740C9076 960.914 9255.09 1140 9476 1140H9861C10081.9 1140 10261 1319.09 10261 1540V2703.5V4899C10261 5179.56 10033.6 5407 9753 5407H508C227.439 5407 0 5179.56 0 4899V508Z" fill="white"/>
<path d="M7004.5 6014C7627.2 6014 8132 5509.2 8132 4886.5C8132 4263.8 7627.2 3759 7004.5 3759C6381.8 3759 5877 4263.8 5877 4886.5C5877 5509.2 6381.8 6014 7004.5 6014Z" fill="#FF9100" fill-opacity="0.9"/>
<path d="M6463.5 6028C7086.2 6028 7591 5523.2 7591 4900.5C7591 4277.8 7086.2 3773 6463.5 3773C5840.8 3773 5336 4277.8 5336 4900.5C5336 5523.2 5840.8 6028 6463.5 6028Z" fill="#FF9E00" fill-opacity="0.9"/>
<path d="M7601.5 6014C8224.2 6014 8729 5509.2 8729 4886.5C8729 4263.8 8224.2 3759 7601.5 3759C6978.8 3759 6474 4263.8 6474 4886.5C6474 5509.2 6978.8 6014 7601.5 6014Z" fill="#FF8500" fill-opacity="0.9"/>
<path d="M8286.5 6014C8909.2 6014 9414 5509.2 9414 4886.5C9414 4263.8 8909.2 3759 8286.5 3759C7663.8 3759 7159 4263.8 7159 4886.5C7159 5509.2 7663.8 6014 8286.5 6014Z" fill="#FF7900" fill-opacity="0.9"/>
<path d="M8996.5 5988C9619.2 5988 10124 5483.2 10124 4860.5C10124 4237.8 9619.2 3733 8996.5 3733C8373.8 3733 7869 4237.8 7869 4860.5C7869 5483.2 8373.8 5988 8996.5 5988Z" fill="#FF6D00" fill-opacity="0.9"/>
<path d="M9715.5 5995C10338.2 5995 10843 5490.2 10843 4867.5C10843 4244.8 10338.2 3740 9715.5 3740C9092.8 3740 8588 4244.8 8588 4867.5C8588 5490.2 9092.8 5995 9715.5 5995Z" fill="#FF6000" fill-opacity="0.9"/>
<circle cx="9716" cy="521" r="500" fill="white"/>
<path d="M9720.38 222.469L9794.84 469.784L9998.37 524.649L9787.7 593.049L9727.2 809.366L9652.3 580.24L9414 517.858L9651 468.112L9720.38 222.469Z" fill="black"/>
</g>
<defs>
<clipPath id="clip0_110_80">
<rect width="10261" height="5407" rx="508" fill="white"/>
</clipPath>
</defs>
</svg>
