<svg preserveAspectRatio="xMidYMid meet" viewBox="199.49122807017542 189.28 955.2280701754386 301.392" xmlns="http://www.w3.org/2000/svg" version="1.0" style="max-height: 500px" width="955.2280701754386" height="301.392">

<g stroke="none" fill="#FFFFFF" transform="translate(0.000000,728.000000) scale(0.100000,-0.100000)">
<path d="M2607 5329 c-95 -21 -179 -57 -267 -113 -133 -86 -218 -192 -271&#10;-336 -58 -161 -58 -164 -53 -996 6 -838 6 -844 70 -982 87 -191 217 -310 416&#10;-384 l83 -31 424 2 c381 2 431 4 499 22 212 54 364 178 458 374 74 153 74 154&#10;74 643 l0 434 -34 34 c-32 32 -38 34 -99 34 -49 0 -70 -5 -90 -20 -48 -38 -51&#10;-63 -44 -491 5 -315 3 -406 -7 -446 -42 -159 -151 -268 -315 -317 -78 -23&#10;-757 -24 -845 -1 -151 40 -263 156 -315 330 -21 69 -21 81 -19 855 l3 785 36&#10;75 c47 99 120 178 206 223 136 70 81 67 1049 67 982 0 967 1 1113 -71 94 -46&#10;198 -141 245 -222 60 -103 76 -169 76 -325 0 -168 10 -205 64 -227 75 -31 163&#10;-10 186 44 20 50 8 334 -19 436 -81 306 -326 524 -675 602 -62 13 -192 16&#10;-974 17 -790 1 -913 -1 -975 -15z"/>
<path d="M2675 4819 c-55 -13 -107 -52 -134 -100 l-23 -40 -1 -772 -2 -772 28&#10;-48 c16 -26 47 -60 69 -75 l41 -27 371 3 c360 3 372 4 411 25 23 13 54 44 73&#10;72 l33 49 -3 199 -3 199 -33 29 -32 29 -269 0 c-256 0 -269 -1 -295 -21 -36&#10;-29 -37 -89 0 -126 l26 -26 221 4 222 4 3 -122 c4 -177 37 -163 -364 -158&#10;-256 3 -329 7 -335 17 -5 7 -9 342 -9 745 l0 732 22 15 c19 14 71 16 360 16&#10;312 0 337 -1 342 -17 3 -10 5 -102 4 -204 -3 -281 -10 -275 352 -266 l245 6&#10;23 26 c25 30 28 64 8 103 -22 43 -467 476 -508 495 -32 15 -79 17 -420 16&#10;-210 -1 -401 -5 -423 -10z m1125 -483 c0 -3 -58 -4 -130 -4 l-130 1 0 134 0&#10;134 130 -131 c72 -71 130 -132 130 -134z"/>
<path d="M11273 4360 c-58 -35 -63 -57 -63 -275 0 -108 -3 -195 -7 -193 -155&#10;77 -167 82 -244 86 -248 14 -470 -132 -539 -357 -26 -82 -35 -210 -21 -286 13&#10;-74 77 -205 127 -264 49 -57 137 -114 222 -143 54 -18 87 -23 172 -22 115 1&#10;173 17 258 75 49 33 52 34 52 15 0 -8 12 -28 26 -45 22 -27 32 -31 76 -31 27&#10;0 65 7 83 16 68 32 64 -5 65 712 1 471 -2 656 -10 672 -30 57 -135 78 -197 40z&#10;m-216 -659 c132 -61 200 -237 139 -366 -53 -116 -131 -165 -258 -165 -95 0&#10;-149 22 -207 85 -94 102 -92 259 5 374 69 83 222 117 321 72z"/>
<path d="M5605 4346 c-93 -41 -107 -157 -28 -226 33 -29 41 -32 89 -28 60 5&#10;89 25 110 75 31 72 3 152 -61 179 -42 17 -71 17 -110 0z"/>
<path d="M2905 4285 c-30 -29 -32 -74 -6 -106 19 -23 24 -24 138 -21 140 3&#10;147 5 161 38 18 38 14 62 -13 89 -23 24 -30 25 -140 25 -110 0 -117 -1 -140&#10;-25z"/>
<path d="M4556 4035 c-188 -52 -354 -218 -395 -395 -15 -66 -13 -197 4 -264&#10;22 -85 82 -192 140 -251 92 -94 236 -142 395 -132 99 7 135 18 209 64 29 19&#10;55 32 58 30 13 -14 13 -82 -1 -130 -22 -74 -69 -135 -131 -166 -42 -21 -64&#10;-25 -140 -25 -108 -1 -165 21 -235 88 -56 55 -79 66 -128 66 -52 0 -102 -35&#10;-121 -83 -12 -33 -12 -42 3 -81 37 -96 140 -180 271 -222 140 -44 348 -28 479&#10;38 120 61 238 221 264 360 6 29 13 271 16 537 5 521 5 519 -46 555 -29 21&#10;-129 21 -169 1 -19 -11 -32 -26 -36 -45 -3 -17 -7 -30 -9 -30 -2 0 -32 15 -66&#10;34 -35 19 -87 41 -117 50 -65 19 -177 19 -245 1z m272 -271 c89 -44 150 -134&#10;159 -235 10 -107 -69 -230 -174 -269 -116 -43 -250 -17 -320 63 -96 109 -76&#10;317 39 410 78 63 205 76 296 31z"/>
<path d="M6441 3975 c-253 -47 -431 -264 -431 -525 0 -90 20 -171 62 -257 61&#10;-124 152 -201 295 -249 70 -23 89 -26 183 -22 120 5 173 23 239 83 l41 37 0&#10;-69 c0 -120 -47 -209 -133 -256 -36 -19 -57 -22 -142 -21 -124 1 -153 13 -246&#10;100 -59 56 -73 64 -106 64 -77 0 -143 -62 -143 -133 0 -44 34 -99 99 -159 129&#10;-120 298 -161 502 -122 46 8 113 29 149 46 85 41 193 150 237 239 62 126 63&#10;134 63 669 0 467 -1 486 -20 518 -24 39 -54 52 -120 52 -38 0 -55 -6 -79 -26&#10;-17 -14 -31 -34 -31 -45 0 -26 -4 -25 -79 20 -105 63 -212 80 -340 56z m234&#10;-274 c92 -42 165 -159 165 -263 0 -74 -47 -168 -107 -214 -76 -58 -215 -69&#10;-303 -24 -21 11 -54 38 -73 61 -124 144 -69 384 102 445 55 20 168 17 216 -5z"/>
<path d="M8813 3975 c-153 -33 -306 -151 -372 -286 -107 -219 -52 -487 135&#10;-658 163 -149 431 -172 609 -52 l45 30 15 -29 c22 -42 53 -60 105 -60 56 0&#10;107 29 125 73 20 47 19 867 -1 915 -32 79 -211 84 -230 7 -8 -31 -16 -31 -62&#10;0 -54 37 -182 75 -250 74 -31 0 -85 -7 -119 -14z m239 -273 c137 -60 208 -236&#10;149 -367 -49 -109 -137 -165 -262 -165 -96 0 -163 31 -215 98 -178 234 62 552&#10;328 434z"/>
<path d="M10095 3977 c-53 -18 -125 -60 -154 -91 l-24 -25 -21 42 c-11 23 -32&#10;48 -46 54 -36 18 -117 16 -150 -3 -61 -36 -60 -31 -60 -498 0 -463 1 -472 55&#10;-514 33 -26 111 -30 153 -8 61 32 60 29 67 311 7 292 14 329 72 389 60 62 104&#10;78 218 84 55 2 108 9 118 14 27 14 57 69 57 106 0 47 -35 109 -73 128 -42 22&#10;-160 28 -212 11z"/>
<path d="M7312 3953 c-60 -29 -62 -43 -62 -345 0 -212 3 -287 15 -333 51 -199&#10;192 -335 382 -366 120 -20 245 13 320 83 l31 30 21 -40 c25 -49 49 -64 104&#10;-64 54 0 86 13 117 47 l25 27 3 453 3 454 -30 33 c-28 32 -32 33 -105 33 -71&#10;0 -78 -2 -105 -30 l-30 -30 -1 -250 c-1 -137 -6 -273 -11 -302 -26 -134 -161&#10;-212 -301 -173 -55 16 -93 53 -130 128 l-33 67 3 252 c3 283 0 302 -63 329&#10;-45 19 -112 17 -153 -3z"/>
<path d="M5568 3945 c-58 -32 -58 -36 -57 -492 0 -297 4 -428 12 -452 16 -46&#10;55 -73 114 -78 63 -7 116 16 143 59 19 32 20 49 20 470 l0 438 -29 32 c-27 30&#10;-34 33 -102 35 -53 2 -82 -1 -101 -12z"/>
<path d="M2906 3929 c-34 -27 -37 -88 -5 -120 20 -20 28 -21 306 -17 l285 3&#10;25 29 c28 33 26 75 -4 108 -15 17 -38 18 -298 18 -270 0 -283 -1 -309 -21z"/>
</g>
</svg>